<svg xmlns="http://www.w3.org/2000/svg" viewBox="0 0 64 64" fill="none">
  <defs>
    <linearGradient id="g" x1="8" y1="8" x2="56" y2="56" gradientUnits="userSpaceOnUse">
      <stop stop-color="#16A34A"/>
      <stop offset="1" stop-color="#DC2626"/>
    </linearGradient>
  </defs>
  <rect x="4" y="4" width="56" height="56" rx="14" fill="#0B0B0B"/>
  <path d="M32 13C27.6 21.2 20 28.1 20 37.4C20 44.5 25.4 50 32 50C38.6 50 44 44.5 44 37.4C44 28.1 36.4 21.2 32 13Z" fill="url(#g)"/>
  <path d="M32 22.5C29.2 28.1 24.4 32.8 24.4 39.1C24.4 43.8 27.8 47.2 32 47.2C36.2 47.2 39.6 43.8 39.6 39.1C39.6 32.8 34.8 28.1 32 22.5Z" fill="#ffffff" fill-opacity="0.18"/>
</svg>
